<svg id="Layer_1" data-name="Layer 1" xmlns="http://www.w3.org/2000/svg" viewBox="0 0 877 179"><defs><style>.cls-1{fill:#fff;}</style></defs><title>baselist-logo-white</title><rect class="cls-1" x="12.87" y="1.08" width="39" height="59.73" transform="translate(1.42 63.32) rotate(-90)"/><path class="cls-1" d="M215,103.56q-6.8-9.14-19.52-12.49,11.26-4.23,17.06-13.16t5.8-21.52c0-14.57-5.45-25.24-16.34-32.9s-26.79-11-47.68-11H95.23v59h-49v39h49v64h66.7c19.78,0,34.7-4.48,44.78-12.47s15.11-20.07,15.11-36C221.83,117.23,219.56,109.66,215,103.56ZM134.23,42.45h20.12c8.77,0,15.13,1.12,19.07,4.14s5.91,7.76,5.91,14.62c0,6-1.82,11-5.46,14s-9.74,5.2-18.29,5.2H134.23Zm42.87,96.84c-3.79,3.24-9.22,5.16-16.28,5.16H134.23v-39h28.37c13.46,1,20.19,6.76,20.19,20.29C182.79,131.62,180.9,136,177.11,139.29Z"/><path class="cls-1" d="M305.54,173.78A42.41,42.41,0,0,1,302,163q-10.37,13-29,13-17.06,0-29-10.32a32.82,32.82,0,0,1-11.93-25.93q0-19.63,14.5-29.66t42.15-10h11.6V93.69Q300.3,77,285.91,77q-13.38,0-13.38,13.22H235q0-17.48,14.89-28.4t38-10.92q23.08,0,36.46,11.26T338,93v53.41q.22,16.62,5.13,25.42v1.9ZM282,149.25a21,21,0,0,0,11.65-3,18.88,18.88,0,0,0,6.63-6.8V120.15H289.37q-19.63,0-19.63,17.62a10.75,10.75,0,0,0,3.46,8.31A12.51,12.51,0,0,0,282,149.25Z"/><path class="cls-1" d="M416.25,139.88q0-4.79-5-7.69t-19.07-6Q378.11,123,369,118A38.81,38.81,0,0,1,355,105.65,29.42,29.42,0,0,1,350.23,89q0-16.61,13.72-27.38T399.86,50.9q23.86,0,38.36,10.82t14.5,28.44H415q0-14.49-15.28-14.5a15.15,15.15,0,0,0-9.92,3.29,10.19,10.19,0,0,0-4,8.2q0,5,4.91,8.14t15.67,5.13a135.67,135.67,0,0,1,18.9,4.79q27.21,9.37,27.21,33.57,0,16.5-14.66,26.87t-38,10.37a65.62,65.62,0,0,1-27.66-5.58,46.21,46.21,0,0,1-19-15.17,34.33,34.33,0,0,1-6.8-20.18h35.13q.22,8.36,5.58,12.21t13.72,3.85q7.69,0,11.54-3.12A10,10,0,0,0,416.25,139.88Z"/><path class="cls-1" d="M522.72,176q-27.77,0-44.94-16.56t-17.17-43.1v-3.12q0-18.51,6.86-32.67a50.19,50.19,0,0,1,20-21.91q13.16-7.75,31.22-7.75,25.43,0,40.14,15.78t14.72,44v14.61H498.86q2,10.15,8.81,15.95t17.62,5.8q17.84,0,27.88-12.49l17.17,20.29q-7,9.7-19.9,15.44A67.28,67.28,0,0,1,522.72,176Zm-4.24-96.12q-16.5,0-19.63,21.86h37.91v-2.9q.22-9-4.57-14T518.48,79.89Z"/><path class="cls-1" d="M622.61,173.78H584.92V2.5h37.69Z"/><path class="cls-1" d="M639.76,21.9a16.92,16.92,0,0,1,5.8-13.24q5.8-5.16,15.05-5.16t15.05,5.16a16.93,16.93,0,0,1,5.8,13.24,16.92,16.92,0,0,1-5.8,13.24q-5.8,5.16-15.05,5.16t-15.05-5.16A16.92,16.92,0,0,1,639.76,21.9Zm39.92,151.88H642V53.13h37.69Z"/><path class="cls-1" d="M760.28,139.88q0-4.79-5-7.69t-19.07-6Q722.15,123,713,118a38.81,38.81,0,0,1-13.94-12.32A29.42,29.42,0,0,1,694.27,89q0-16.61,13.72-27.38T743.89,50.9q23.86,0,38.36,10.82t14.5,28.44H759.06q0-14.49-15.28-14.5a15.15,15.15,0,0,0-9.92,3.29,10.19,10.19,0,0,0-4,8.2q0,5,4.91,8.14t15.67,5.13a135.67,135.67,0,0,1,18.9,4.79q27.21,9.37,27.21,33.57,0,16.5-14.66,26.87t-38,10.37a65.62,65.62,0,0,1-27.66-5.58,46.21,46.21,0,0,1-19-15.17,34.33,34.33,0,0,1-6.8-20.18H725.6q.22,8.36,5.58,12.21t13.72,3.85q7.69,0,11.54-3.12A10,10,0,0,0,760.28,139.88Z"/><path class="cls-1" d="M852.15,23.13v30H872V79.22H852.15v55.2q0,6.8,2.45,9.48t9.7,2.68a55.12,55.12,0,0,0,9.37-.67v26.87A69.38,69.38,0,0,1,852.48,176q-19.4,0-28.66-9.14t-9.26-27.77V79.22H799.18V53.13h15.39v-30Z"/></svg>