<?xml version="1.0" encoding="utf-8"?>
<!-- Generator: Adobe Illustrator 19.1.0, SVG Export Plug-In . SVG Version: 6.00 Build 0)  -->
<!DOCTYPE svg PUBLIC "-//W3C//DTD SVG 1.1//EN" "http://www.w3.org/Graphics/SVG/1.1/DTD/svg11.dtd">
<svg version="1.1" id="Layer_1" xmlns="http://www.w3.org/2000/svg" xmlns:xlink="http://www.w3.org/1999/xlink" x="0px" y="0px"
	 viewBox="-356 234.3 128 128" style="enable-background:new -356 234.3 128 128;" xml:space="preserve">
<style type="text/css">
	.st0{fill-rule:evenodd;clip-rule:evenodd;fill:#FFFFFF;}
</style>
<g>
	<path class="st0" d="M-321,345.6c0,0,1.6,7.4,10,7.4h38c8.4,0,10-7.4,10-7.4l7.5-72.9h-73L-321,345.6z M-277.4,283.7
		c0-2,1.6-3.7,3.7-3.7c2,0,3.7,1.6,3.7,3.7l-3.7,54.8c0,2-1.6,3.7-3.7,3.7s-3.7-1.6-3.7-3.7L-277.4,283.7z M-295.7,283.7
		c0-2,1.6-3.7,3.7-3.7s3.6,1.6,3.6,3.7v54.8c0,2-1.6,3.7-3.6,3.7c-2,0-3.7-1.6-3.7-3.7V283.7z M-310.3,280c2,0,3.6,1.6,3.6,3.7
		l3.7,54.8c0,2-1.6,3.6-3.7,3.6c-2,0-3.6-1.6-3.6-3.6l-3.7-54.8C-313.9,281.7-312.3,280-310.3,280L-310.3,280z M-257.7,258.1h-16.1
		v-7.3c0-5.5-1.8-7.3-7.3-7.3H-303c-5.1,0-7.3,2.4-7.3,7.3v7.3h-16.1c-3.2,0-5.8,2.5-5.8,5.5c0,3,2.6,5.5,5.8,5.5h68.6
		c3.2,0,5.8-2.5,5.8-5.5C-251.8,260.6-254.4,258.1-257.7,258.1L-257.7,258.1z M-281,258.1H-303l0-7.3h21.9V258.1z M-281,258.1"/>
</g>
</svg>
